# xmcd CD database file
#
# Track frame offsets:
#	150
#	17822
#	24795
#	31660
#	70537
#	109300
#	131770
#	155442
#	164030
#	184055
#	190605
#	232002
#
# Disc length: 3170 seconds
#
# Revision: 0
# Processed by: cddbd v1.5.1PL2 Copyright (c) Steve Scherf et al.
# Submitted via: CDex 1.51
#
DISCID=940c600c
DTITLE=New Age - Eco Reflexão - Terra Paraiso
DYEAR=1900
DGENRE=New Age
TTITLE0=Sausahuaman
TTITLE1=Cântico do Oriente
TTITLE2=Vale Sagrado
TTITLE3=Tequile
TTITLE4=Terra Paraiso
TTITLE5=Ilhas Ballestas
TTITLE6=Punta Sol
TTITLE7=Pasto Ruri
TTITLE8=Markahuasi
TTITLE9=Pasto Ruri (RIP)
TTITLE10=Machu Pichu
TTITLE11=Llanganuco
EXTD=
EXTT0=
EXTT1=
EXTT2=
EXTT3=
EXTT4=
EXTT5=
EXTT6=
EXTT7=
EXTT8=
EXTT9=
EXTT10=
EXTT11=
PLAYORDER=
